<svg width="38" height="47" viewBox="0 0 38 47" fill="none" xmlns="http://www.w3.org/2000/svg">
<path d="M9.4737 34.2569L6.69336 15.712L7.38845 13.7936L13.2077 12.5146H24.0705L30.3263 13.7936L31.7165 16.3515L28.241 36.1754L24.0705 37.4543L17.8147 38.0938L12.254 37.4543L9.4737 36.1754V34.2569Z" fill="white"/>
<path d="M12.9533 36.1756L10.3929 35.396L7.39258 16.9912L11.4944 17.1518L12.9533 36.1756Z" fill="#E4002B"/>
<path d="M25.4629 36.1756L28.0227 35.396L31.0236 16.9912L26.921 17.1518L25.4629 36.1756Z" fill="#E4002B"/>
<path d="M19.2075 33.8681C13.4805 33.8681 10.1714 32.5562 8.78125 32.1299L9.47634 35.5334C9.93973 36.386 12.5347 38.0913 19.2075 38.0913C25.8804 38.0913 28.4754 36.386 28.9387 35.5334V32.1299C27.0852 32.5562 24.9346 33.8681 19.2075 33.8681Z" fill="white"/>
<path d="M19.2066 38.7351C16.7531 38.7351 14.3324 38.464 12.3928 37.9715C10.2422 37.426 9.03914 36.7119 8.81653 35.8528C8.79685 35.7757 8.78455 35.6972 8.77975 35.6182L6.02131 15.6879C6.00675 15.583 5.99963 15.4774 6.00001 15.3717V15.317C5.99986 15.2118 6.01252 15.1069 6.03776 15.0042C6.22166 14.2546 7.0337 13.6465 8.51649 13.1487C10.8946 12.3521 14.8899 11.877 19.2066 11.877C23.5234 11.877 27.5187 12.3521 29.8929 13.1487C31.3002 13.6204 32.1026 14.1911 32.3407 14.8861L32.393 14.9825V15.0911C32.4058 15.1653 32.4122 15.2402 32.4123 15.3152V15.3708C32.4138 15.4776 32.4074 15.5844 32.393 15.6905L29.6161 35.732C29.4758 36.6407 28.2911 37.3886 26.094 37.955C24.1476 38.4588 21.7009 38.7351 19.2066 38.7351ZM10.518 35.487C10.8868 35.9744 13.9724 37.1714 19.2066 37.1714C21.396 37.1714 23.5621 36.943 25.311 36.5277C27.1122 36.1003 27.7791 35.6365 27.8972 35.4853L30.6634 15.5055C30.6685 15.4674 30.6705 15.4291 30.6692 15.3908V15.3395C30.6372 15.2926 30.4001 14.9921 29.2832 14.6159C27.0929 13.8793 23.3249 13.4406 19.2066 13.4406C15.0883 13.4406 11.3233 13.8793 9.13012 14.6133C8.04029 14.9782 7.78671 15.2761 7.74219 15.3387V15.3873C7.74183 15.4236 7.7441 15.4599 7.74896 15.4959L10.518 35.487Z" fill="#202124"/>
<path d="M19.2066 38.7351C16.7531 38.7351 14.3324 38.464 12.3928 37.9715C10.2422 37.426 9.03914 36.7119 8.81653 35.8528C8.79685 35.7757 8.78455 35.6972 8.77975 35.6182L6.02131 15.6879C6.00675 15.583 5.99963 15.4774 6.00001 15.3717V15.317C5.99986 15.2118 6.01252 15.1069 6.03776 15.0042C6.22166 14.2546 7.0337 13.6465 8.51649 13.1487C10.8946 12.3521 14.8899 11.877 19.2066 11.877C23.5234 11.877 27.5187 12.3521 29.8929 13.1487C31.3002 13.6204 32.1026 14.1911 32.3407 14.8861L32.393 14.9825V15.0911C32.4058 15.1653 32.4122 15.2402 32.4123 15.3152V15.3708C32.4138 15.4776 32.4074 15.5844 32.393 15.6905L29.6161 35.732C29.4758 36.6407 28.2911 37.3886 26.094 37.955C24.1476 38.4588 21.7009 38.7351 19.2066 38.7351ZM10.518 35.487C10.8868 35.9744 13.9724 37.1714 19.2066 37.1714C21.396 37.1714 23.5621 36.943 25.311 36.5277C27.1122 36.1003 27.7791 35.6365 27.8972 35.4853L30.6634 15.5055C30.6685 15.4674 30.6705 15.4291 30.6692 15.3908V15.3395C30.6372 15.2926 30.4001 14.9921 29.2832 14.6159C27.0929 13.8793 23.3249 13.4406 19.2066 13.4406C15.0883 13.4406 11.3233 13.8793 9.13012 14.6133C8.04029 14.9782 7.78671 15.2761 7.74219 15.3387V15.3873C7.74183 15.4236 7.7441 15.4599 7.74896 15.4959L10.518 35.487Z" stroke="white"/>
<path d="M19.2066 18.7561C15.8452 18.7561 12.6783 18.472 10.2809 17.9578C7.40051 17.3349 6 16.4723 6 15.3161C6 14.1599 7.40051 13.2973 10.2809 12.677C12.6783 12.161 15.8452 11.877 19.2066 11.877C22.5681 11.877 25.7378 12.161 28.1324 12.677C31.0128 13.2973 32.4133 14.1607 32.4133 15.3161C32.4133 16.4715 31.0128 17.3349 28.1324 17.9578C25.7378 18.472 22.5681 18.7561 19.2066 18.7561ZM7.75766 15.3161C7.90477 15.5142 8.71876 16.0501 11.0649 16.5132C13.2842 16.9475 16.1753 17.1925 19.2066 17.1925C22.238 17.1925 25.129 16.951 27.3484 16.5132C29.6945 16.0501 30.5085 15.5142 30.6556 15.3161C30.5085 15.1189 29.6945 14.5829 27.3484 14.1199C25.129 13.6856 22.238 13.4406 19.2066 13.4406C16.1753 13.4406 13.2842 13.6821 11.0649 14.1199C8.71876 14.5829 7.90477 15.1189 7.75766 15.3161Z" fill="#202124"/>
<path d="M19.2066 18.7561C15.8452 18.7561 12.6783 18.472 10.2809 17.9578C7.40051 17.3349 6 16.4723 6 15.3161C6 14.1599 7.40051 13.2973 10.2809 12.677C12.6783 12.161 15.8452 11.877 19.2066 11.877C22.5681 11.877 25.7378 12.161 28.1324 12.677C31.0128 13.2973 32.4133 14.1607 32.4133 15.3161C32.4133 16.4715 31.0128 17.3349 28.1324 17.9578C25.7378 18.472 22.5681 18.7561 19.2066 18.7561ZM7.75766 15.3161C7.90477 15.5142 8.71876 16.0501 11.0649 16.5132C13.2842 16.9475 16.1753 17.1925 19.2066 17.1925C22.238 17.1925 25.129 16.951 27.3484 16.5132C29.6945 16.0501 30.5085 15.5142 30.6556 15.3161C30.5085 15.1189 29.6945 14.5829 27.3484 14.1199C25.129 13.6856 22.238 13.4406 19.2066 13.4406C16.1753 13.4406 13.2842 13.6821 11.0649 14.1199C8.71876 14.5829 7.90477 15.1189 7.75766 15.3161Z" stroke="white"/>
<ellipse cx="19.5" cy="43" rx="8.5" ry="1" fill="#C4C4C4" fill-opacity="0.5"/>
<path d="M23.5 9.5L24 11.5L23.5 13.5L21 15.5L19 15L17.5 14.5L16.5 12L15 7.5L17.5 5.5L23.5 9.5Z" fill="white"/>
<path fill-rule="evenodd" clip-rule="evenodd" d="M15.1607 0.786708C14.7904 0.365027 14.2219 0.0154662 13.5681 0.000452256L13.5664 0.000414164C12.8633 -0.0143262 12.3338 0.366462 12.0118 0.812898C11.8451 1.0439 11.7218 1.30563 11.6408 1.57717C11.3726 1.64041 11.1103 1.74442 10.8742 1.89507C10.4038 2.19521 10.0166 2.70373 10.0006 3.39842C9.97371 4.56056 10.896 5.61603 12.1366 5.60249L12.1416 5.60243C12.2287 5.60096 12.3153 5.59527 12.3964 5.58761L14.218 7.7901L15.4954 6.74036L13.0553 3.79003L12.5636 3.896L12.5627 3.89621L12.5571 3.89735L12.5272 3.90321C12.4999 3.9084 12.46 3.91558 12.4126 3.92291C12.3136 3.93823 12.2046 3.95064 12.1163 3.95237C11.8892 3.95353 11.6486 3.74259 11.6557 3.43643C11.6565 3.40116 11.6644 3.3839 11.6727 3.37046C11.6837 3.35295 11.7096 3.32136 11.7667 3.28493C11.8898 3.20638 12.0973 3.14571 12.3337 3.15114L13.1613 3.17014L13.1803 2.34524C13.1854 2.12445 13.2585 1.91125 13.3559 1.77626C13.4445 1.65346 13.5042 1.64981 13.5308 1.65027C13.6142 1.65253 13.7726 1.71147 13.9151 1.87369C14.0551 2.03312 14.0749 2.17038 14.068 2.22414C14.0523 2.30556 14.0168 2.43141 13.9704 2.55328C13.9472 2.61428 13.9257 2.66236 13.9093 2.69453C13.9073 2.69831 13.9056 2.7016 13.9041 2.70445L13.3888 3.28205L16.4515 6.1017L17.5747 4.88942L15.5571 3.03192C15.6167 2.86081 15.6683 2.67613 15.6985 2.51087L15.6996 2.5045L15.7007 2.49812C15.8122 1.8276 15.5302 1.20745 15.1607 0.786708Z" fill="#202124"/>
<path fill-rule="evenodd" clip-rule="evenodd" d="M17.1021 4.51437L23.2004 7.99457L23.261 8.04662C24.5716 9.17155 25.099 10.5363 24.9849 11.8561C24.8734 13.144 24.1599 14.288 23.1848 15.0388C22.2067 15.7919 20.9042 16.1952 19.5757 15.9061C18.2296 15.6132 17.0029 14.6428 16.1218 12.9324L16.099 12.8881L14.0984 7.50851L17.1021 4.51437ZM17.3806 6.59321L16.0383 7.9312L17.6311 12.2143C18.3337 13.5553 19.1862 14.1159 19.9321 14.2782C20.7035 14.4461 21.5113 14.2219 22.163 13.7202C22.8177 13.2161 23.2533 12.4778 23.3195 11.7129C23.3816 10.995 23.1272 10.1567 22.2282 9.35968L17.3806 6.59321Z" fill="#202124"/>
</svg>
