<svg width="18" height="20" viewBox="0 0 18 20" fill="none" xmlns="http://www.w3.org/2000/svg">
<path d="M8.99749 18.5951C7.5117 18.5951 6.04584 18.4175 4.87127 18.0948C3.56893 17.7375 2.8404 17.2697 2.70559 16.7068C2.69368 16.6563 2.68623 16.6049 2.68332 16.5532L1.0129 3.49659C1.00409 3.42788 0.999778 3.35869 1.00001 3.28944C1.00001 3.27749 1.00001 3.26611 1.00001 3.25359C0.999916 3.18469 1.00758 3.116 1.02287 3.04872C1.13423 2.55759 1.62598 2.15923 2.5239 1.83315C3.96397 1.31129 6.38344 1 8.99749 1C11.6115 1 14.031 1.31129 15.4687 1.83315C16.321 2.14216 16.8068 2.51605 16.951 2.97132L16.9827 3.03449V3.10563C16.9904 3.15421 16.9943 3.20329 16.9944 3.25245C16.9944 3.2644 16.9944 3.27635 16.9944 3.28887C16.9953 3.35886 16.9914 3.42882 16.9827 3.4983L15.3011 16.6277C15.2161 17.223 14.4987 17.713 13.1683 18.084C11.9896 18.4141 10.5079 18.5951 8.99749 18.5951ZM3.73598 16.4672C3.95928 16.7865 5.82781 17.5707 8.99749 17.5707C10.3233 17.5707 11.635 17.421 12.6941 17.149C13.7848 16.869 14.1887 16.5651 14.2602 16.4661L15.9353 3.37708C15.9384 3.35216 15.9396 3.32705 15.9388 3.30196V3.26839C15.9195 3.23765 15.7759 3.04075 15.0995 2.79434C13.7731 2.31175 11.4914 2.02436 8.99749 2.02436C6.50359 2.02436 4.22362 2.31175 2.89549 2.79263C2.23553 3.03164 2.08197 3.22684 2.05501 3.26782V3.29969C2.05479 3.32346 2.05616 3.34722 2.05911 3.37082L3.73598 16.4672Z" fill="white" stroke="white" stroke-width="0.5"/>
<path d="M8.99748 5.50661C6.96192 5.50661 5.04416 5.32052 3.59237 4.98362C1.8481 4.57559 1 4.01048 1 3.25302C1 2.49557 1.8481 1.93046 3.59237 1.52413C5.04416 1.18609 6.96192 1 8.99748 1C11.033 1 12.9526 1.18609 14.4026 1.52413C16.1469 1.93046 16.995 2.49613 16.995 3.25302C16.995 4.00991 16.1469 4.57559 14.4026 4.98362C12.9526 5.32052 11.033 5.50661 8.99748 5.50661ZM2.06438 3.25302C2.15347 3.38277 2.64639 3.7339 4.06712 4.03723C5.41107 4.32177 7.16178 4.48225 8.99748 4.48225C10.8332 4.48225 12.5839 4.32405 13.9278 4.03723C15.3486 3.7339 15.8415 3.38277 15.9306 3.25302C15.8415 3.12384 15.3486 2.77271 13.9278 2.46939C12.5839 2.18484 10.8332 2.02436 8.99748 2.02436C7.16178 2.02436 5.41107 2.18257 4.06712 2.46939C2.64639 2.77271 2.15347 3.12384 2.06438 3.25302Z" fill="white" stroke="white" stroke-width="0.5"/>
<path d="M13 9L18 10.5L17.041 15.7061L14.541 19.2061H8.04102L6.54102 15.2061L13 9Z" fill="#E4002B"/>
<rect x="11.9946" y="11.252" width="1.42857" height="7.72727" fill="white"/>
<rect x="9.1377" y="15.8877" width="1.54546" height="7.14286" transform="rotate(-90 9.1377 15.8877)" fill="white"/>
</svg>
